<?xml version="1.0" encoding="utf-8"?>
<!-- Generator: Adobe Illustrator 19.0.0, SVG Export Plug-In . SVG Version: 6.00 Build 0)  -->
<svg version="1.1" id="Layer_1" xmlns="http://www.w3.org/2000/svg" xmlns:xlink="http://www.w3.org/1999/xlink" x="0px" y="0px"
	 viewBox="0 0 1024 1024" style="enable-background:new 0 0 1024 1024;" xml:space="preserve">
<g>
	<g>
		<path d="M1025,485c0,18.7,0,37.3,0,56c-0.9,9.4-1.8,18.9-2.8,28.3c-6.4,59.4-22.8,115.9-49.2,169.5c-32,64.8-75.6,120.7-131.1,167
			c-76.7,63.9-164.6,102.5-263.7,115.4c-12,1.6-24.1,2.5-36.2,3.8c-19.3,0-38.7,0-58,0c-10.6-1-21.2-1.9-31.8-3.1
			c-69.5-8.5-134.8-29.9-195.4-65.2c-3.6-2.1-6.9-2.5-10.9-1.7c-70.3,13.9-140.5,27.8-210.8,41.6c-6.7,1.3-6.9,1.1-5.6-5.7
			c13.8-70.3,27.6-140.6,41.6-210.8c0.8-4,0.4-7.4-1.7-10.9c-8.1-13.8-15.5-28-22.2-42.5c-23-50.1-37.5-102.5-43.4-157.3
			c-1-9.1-1.9-18.2-2.8-27.3c0-19,0-38,0-57c1.3-3.9,0.8-7.9,1.1-11.9c3.9-45.4,13-89.6,28.4-132.6c25-69.8,63.5-131.2,115-184.4
			c35.7-36.9,76.2-67.7,121.2-92.4c59.4-32.5,122.6-52.6,189.9-59.9C466.5,2.8,476.2,2,486,1c18,0,36,0,54,0
			c1.5,0.3,2.9,0.7,4.4,0.8c13.7,0.6,27.2,2.1,40.8,4C695,21.9,789.9,68.7,869.8,145.6c46.5,44.7,83,96.8,109.7,155.6
			c21.4,47.1,35.4,96.3,41.7,147.6C1022.7,460.8,1023.8,472.9,1025,485z M464.5,569.6c-1.7-1.4-2.1-3.1-2.7-4.6
			c-22.8-55.2-45.5-110.3-68.1-165.5c-1.9-4.7-4.4-6.6-9.6-6.5c-28.5,0.2-57,0.1-85.5,0.1c-7.8,0-8.1,0.3-5.1,7.4
			c35.8,86,72,171.8,107.1,258.1c12,29.5,43.6,46.4,76.6,40.4c24.8-4.5,41.9-19,51.4-42.6c17.5-43.6,35.2-87.1,52.9-130.7
			c0.9-2.3,1.9-4.6,2.9-6.9c1.1-2.4,2.3-2.1,3.3,0.1c0.4,0.9,0.8,1.8,1.2,2.8c18.6,45.5,37.8,90.8,55.6,136.6
			c13.7,35.2,56.6,52,91.5,35.7c13.8-6.5,25.4-16,34.5-28.2c51.9-69.7,74.5-148.1,63.8-234.2c-14.4-115.1-74.9-200.1-177-254.3
			c-67.1-35.7-139.4-43.6-213.8-30.3c-88.7,15.7-163.2,57.7-220.6,127.1c-79.3,95.8-105.8,205.8-76.7,326.5
			c28.3,117.5,100.2,201.4,209.9,252c71.7,33.1,147,39.7,224.4,25.5c4.5-0.8,6.5-2.6,6.5-7.5c-0.2-27.3-0.1-54.7-0.1-82
			c0-5.6-0.2-5.7-5.7-4.4c-28.9,7.2-58.2,10.8-88.1,9.3c-67.6-3.4-126.5-28.2-176-74.1c-61.8-57.3-91.6-128.9-90.2-213.3
			c0.7-41.9,10.7-81.6,29.8-118.7c31.2-60.4,78-104.6,140.5-131.6c43.8-18.9,89.8-26.4,137.3-21c58.5,6.6,107.9,32,147.8,75.2
			c40.2,43.5,61,95.3,62.6,154.5c1,39.6-8.1,77-26.4,112.2c-1.2,2.2-1.6,6.1-4.4,6c-2.4-0.1-2.6-3.9-3.5-6.1
			c-20.3-49.8-40.6-99.7-60.9-149.5c-2.6-6.4-5.5-12.5-10.1-17.7c-36.1-40.7-101.1-25.7-118.3,20c-17.1,45.2-35.7,89.8-53.6,134.7
			C466.8,565.7,466.4,567.9,464.5,569.6z"/>
	</g>
</g>
</svg>
